<?xml version="1.0" encoding="iso-8859-1"?>
<!-- Generator: Adobe Illustrator 18.0.0, SVG Export Plug-In . SVG Version: 6.00 Build 0)  -->
<!DOCTYPE svg PUBLIC "-//W3C//DTD SVG 1.1//EN" "http://www.w3.org/Graphics/SVG/1.1/DTD/svg11.dtd">
<svg version="1.1" id="Capa_1" xmlns="http://www.w3.org/2000/svg" xmlns:xlink="http://www.w3.org/1999/xlink" x="0px" y="0px" viewBox="0 0 413.021 413.021" style="enable-background:new 0 0 413.021 413.021;" xml:space="preserve">
<g>
	<path d="M409.271,187.254L143.918,34.052c-2.32-1.34-5.18-1.34-7.5,0L3.75,110.648c-2.32,1.34-3.75,3.816-3.75,6.495v102.129
		c0,2.679,1.43,5.156,3.75,6.495l265.354,153.202c1.16,0.67,2.455,1.005,3.75,1.005s2.59-0.335,3.75-1.005l132.667-76.598
		c2.32-1.34,3.75-3.816,3.75-6.495V193.749C413.021,191.07,411.592,188.594,409.271,187.254z M398.021,266.038l-117.667,67.911
		v-8.211l117.667-67.92V266.038z M151.744,96.875l-26.168-0.006V57.632l10.477-6.049L151.744,96.875z M110.576,95.286l-37.663-7.249
		l37.663-21.745V95.286z M110.572,110.56l-0.008,10.934l-79.666-9.199l22.174-12.802L110.572,110.56z M15,155.689l250.354,144.524
		v8.21L15,163.899V155.689z M265.354,282.893L15,138.369v-8.236l250.354,144.542V282.893z M15,181.219l250.354,144.524v8.21
		L15,189.429V181.219z M398.021,240.498l-117.667,67.92v-8.21l117.667-67.92V240.498z M398.021,214.968l-117.667,67.92v-8.213
		l117.667-67.936V214.968z M272.854,261.685L42.596,128.745l74.601,8.614c2.121,0.245,4.252-0.427,5.849-1.849
		s2.51-3.458,2.512-5.596l0.013-18.046l36.708,0.009c0.001,0,0.001,0,0.002,0c2.426,0,4.702-1.174,6.109-3.15
		c1.407-1.977,1.771-4.512,0.978-6.805L153.84,57.101l236.682,136.648L272.854,261.685z M15,206.749l250.354,144.524v8.211
		L15,214.942V206.749z M280.354,359.484v-8.216l117.667-67.911v8.189L280.354,359.484z"/>
	<path d="M184.416,124.655c1.274,0,2.565-0.325,3.748-1.009l22.094-12.776c3.585-2.073,4.812-6.661,2.737-10.247
		c-2.073-3.587-6.66-4.811-10.247-2.738l-22.094,12.776c-3.585,2.073-4.812,6.661-2.737,10.247
		C179.307,123.312,181.826,124.655,184.416,124.655z"/>
</g>
<g>
</g>
<g>
</g>
<g>
</g>
<g>
</g>
<g>
</g>
<g>
</g>
<g>
</g>
<g>
</g>
<g>
</g>
<g>
</g>
<g>
</g>
<g>
</g>
<g>
</g>
<g>
</g>
<g>
</g>
</svg>
