<?xml version="1.0" encoding="iso-8859-1"?>
<!-- Generator: Adobe Illustrator 16.0.0, SVG Export Plug-In . SVG Version: 6.00 Build 0)  -->
<!DOCTYPE svg PUBLIC "-//W3C//DTD SVG 1.1//EN" "http://www.w3.org/Graphics/SVG/1.1/DTD/svg11.dtd">
<svg version="1.1" id="Capa_1" xmlns="http://www.w3.org/2000/svg" xmlns:xlink="http://www.w3.org/1999/xlink" x="0px" y="0px"
	 width="123.531px" height="123.53px" viewBox="0 0 123.531 123.53" style="enable-background:new 0 0 123.531 123.53;"
	 xml:space="preserve">
<g>
	<g>
		<path d="M7.584,54.354v9.359H6.021v12.051h1.563v19.328H6.021v12.053h1.563v10.359h54.91V56.49l-0.26-2.136H7.584z
			 M58.029,113.039h-45.98v-5.895h1.563V95.092h-1.563V75.764h1.563V63.713h-1.563v-4.895h45.98V113.039z"/>
		<path d="M35.262,96.655c7.138,0,12.946-5.81,12.946-12.947S42.4,70.764,35.262,70.764c-7.139,0-12.946,5.807-12.946,12.944
			S28.123,96.655,35.262,96.655z M35.262,76.118c4.184,0,7.589,3.403,7.589,7.589s-3.405,7.59-7.589,7.59
			c-4.185,0-7.59-3.404-7.59-7.59C27.672,79.523,31.077,76.118,35.262,76.118z"/>
		<path d="M46.124,71.303c1.721,0,3.234-0.891,4.111-2.231h6.454v-5.356h-6.454c-0.877-1.342-2.39-2.232-4.111-2.232
			c-2.708,0-4.911,2.203-4.911,4.91C41.214,69.1,43.417,71.303,46.124,71.303z"/>
		<rect x="13.611" y="118.844" width="8.705" height="4.463"/>
		<rect x="45.752" y="118.844" width="8.705" height="4.463"/>
		<path d="M101.121,28.511c-0.174-0.106-0.358-0.178-0.541-0.261c-1.383-0.897-2.926-1.561-4.498-1.945l-3.185,3.205l-3.087-3.24
			c-0.011,0.003-0.021,0.003-0.031,0.005c-1.992,0.477-3.938,1.404-5.576,2.689c-1.744,1.121-3.385,2.669-5.246,4.463
			c-5.034,4.852-11.299,10.889-22.552,10.889c-2.74,0-4.962,2.224-4.962,4.964c0,2.74,2.222,4.961,4.962,4.961
			c10.541,0,18.034-4.083,23.41-8.293v19.685c0,1.35,0.266,2.606,0.729,3.764c-0.031,0.246-0.074,0.488-0.074,0.742l-0.041,47.52
			c-0.003,3.24,2.62,5.867,5.859,5.872c0,0,0.002,0,0.004,0c3.236,0,5.863-2.623,5.865-5.86l0.035-40.787
			c0.235,0.012,0.469,0.028,0.705,0.028c0.047,0,0.092-0.005,0.139-0.006l-0.002,40.759c0,3.239,2.625,5.866,5.863,5.866h0.001
			c3.238,0,5.865-2.627,5.865-5.865l0.003-46.608c0.299,0.278,0.623,0.535,0.998,0.738c0.753,0.41,1.564,0.604,2.367,0.604
			c1.759,0,3.463-0.938,4.363-2.592C126.494,44.073,107.397,32.36,101.121,28.511z M92.929,54.809h-0.061l-3.082-4.219l3.082-20.605
			h0.061l3.083,20.605L92.929,54.809z M105.981,60.3V46.295C107.83,49.847,108.24,54.331,105.981,60.3z"/>
		<circle cx="92.898" cy="12.782" r="12.782"/>
	</g>
</g>
<g>
</g>
<g>
</g>
<g>
</g>
<g>
</g>
<g>
</g>
<g>
</g>
<g>
</g>
<g>
</g>
<g>
</g>
<g>
</g>
<g>
</g>
<g>
</g>
<g>
</g>
<g>
</g>
<g>
</g>
</svg>
